<?xml version="1.0" encoding="UTF-8" standalone="no"?><svg xmlns:svg="http://www.w3.org/2000/svg" xmlns="http://www.w3.org/2000/svg" xmlns:xlink="http://www.w3.org/1999/xlink" version="1.0" width="64px" height="64px" viewBox="0 0 128 128" xml:space="preserve"><rect x="0" y="0" width="100%" height="100%" fill="#FFFFFF" /><g><path d="M64 0l2.48 7.64h8.02L68 12.36 70.5 20 64 15.28 57.5 20l2.5-7.64-6.5-4.72h8.02z" fill="#78ca5c"/><path d="M64 0l2.48 7.64h8.02L68 12.36 70.5 20 64 15.28 57.5 20l2.5-7.64-6.5-4.72h8.02z" fill="#fbfefb" transform="rotate(30 64 64)"/><path d="M64 0l2.48 7.64h8.02L68 12.36 70.5 20 64 15.28 57.5 20l2.5-7.64-6.5-4.72h8.02z" fill="#f3faf0" transform="rotate(60 64 64)"/><path d="M64 0l2.48 7.64h8.02L68 12.36 70.5 20 64 15.28 57.5 20l2.5-7.64-6.5-4.72h8.02z" fill="#e8f6e4" transform="rotate(90 64 64)"/><path d="M64 0l2.48 7.64h8.02L68 12.36 70.5 20 64 15.28 57.5 20l2.5-7.64-6.5-4.72h8.02z" fill="#ddf1d5" transform="rotate(120 64 64)"/><path d="M64 0l2.48 7.64h8.02L68 12.36 70.5 20 64 15.28 57.5 20l2.5-7.64-6.5-4.72h8.02z" fill="#d0edc6" transform="rotate(150 64 64)"/><path d="M64 0l2.48 7.64h8.02L68 12.36 70.5 20 64 15.28 57.5 20l2.5-7.64-6.5-4.72h8.02z" fill="#c3e8b7" transform="rotate(180 64 64)"/><path d="M64 0l2.48 7.64h8.02L68 12.36 70.5 20 64 15.28 57.5 20l2.5-7.64-6.5-4.72h8.02z" fill="#b5e2a6" transform="rotate(210 64 64)"/><path d="M64 0l2.48 7.64h8.02L68 12.36 70.5 20 64 15.28 57.5 20l2.5-7.64-6.5-4.72h8.02z" fill="#a8dd96" transform="rotate(240 64 64)"/><path d="M64 0l2.48 7.64h8.02L68 12.36 70.5 20 64 15.28 57.5 20l2.5-7.64-6.5-4.72h8.02z" fill="#9ad886" transform="rotate(270 64 64)"/><path d="M64 0l2.48 7.64h8.02L68 12.36 70.5 20 64 15.28 57.5 20l2.5-7.64-6.5-4.72h8.02z" fill="#8ed377" transform="rotate(300 64 64)"/><path d="M64 0l2.48 7.64h8.02L68 12.36 70.5 20 64 15.28 57.5 20l2.5-7.64-6.5-4.72h8.02z" fill="#83ce69" transform="rotate(330 64 64)"/><animateTransform attributeName="transform" type="rotate" values="0 64 64;30 64 64;60 64 64;90 64 64;120 64 64;150 64 64;180 64 64;210 64 64;240 64 64;270 64 64;300 64 64;330 64 64" calcMode="discrete" dur="1080ms" repeatCount="indefinite"></animateTransform></g></svg>