<?xml version="1.0" encoding="UTF-8" standalone="no"?><svg xmlns:svg="http://www.w3.org/2000/svg" xmlns="http://www.w3.org/2000/svg" xmlns:xlink="http://www.w3.org/1999/xlink" version="1.0" width="64px" height="64px" viewBox="0 0 128 128" xml:space="preserve"><rect x="0" y="0" width="100%" height="100%" fill="#FFFFFF" /><g><path d="M31.97 79.25A19.95 19.95 0 0 1 66.7 98.87c4.56 2.6 18.3 9.27 30.8 2.74 22.57-11.8 24.1-33.5 23.4-50.6 6.14 10 11.37 47.68-25.38 67.8-10.56 5.8-28.98 6.94-41.8 1.16-21.7-9.78-28.27-29.4-21.75-40.68zM92.9 83.8a19.95 19.95 0 0 1-.38-39.88c0-5.25-1.1-20.48-13-28.02C58 2.24 38.42 11.75 23.96 20.95c5.58-10.32 35.6-33.7 71.4-11.94 10.3 6.3 20.5 21.68 21.9 35.68C119.64 68.3 105.93 83.8 92.9 83.8zM66.66 28.7A19.95 19.95 0 0 1 32.3 49c-4.54 2.63-17.18 11.2-17.77 25.27-1.06 25.46 16.95 37.64 32.16 45.58-11.77.33-47-13.98-46.08-55.87.27-12.04 8.5-28.56 19.9-36.78 19.32-13.9 39.6-9.77 46.1 1.52z" fill="#78ca5c"/><animateTransform attributeName="transform" type="rotate" from="0 64 64" to="120 64 64" dur="1080ms" repeatCount="indefinite"></animateTransform></g></svg>